<svg width="199" height="56" viewBox="0 0 199 56" fill="none" xmlns="http://www.w3.org/2000/svg">
<g clip-path="url(#clip0_281_10680)">
<path d="M116.019 24.3833C115.327 23.7922 114.798 23.2711 114.448 22.8356C113.788 22.0111 113.461 21 113.461 19.7944C113.461 18.4722 113.788 17.4456 114.448 16.7067C115.109 15.9678 115.964 15.6022 117.021 15.6022C118.078 15.6022 119.027 16.0144 119.719 16.8389C120.411 17.6711 120.76 18.76 120.76 20.1133V21.3267C120.76 21.63 120.908 21.7778 121.211 21.7778H124.538C124.841 21.7778 124.989 21.63 124.989 21.3267V20.1989C124.989 17.71 124.266 15.6956 122.805 14.1633C121.351 12.6311 119.423 11.8611 117.014 11.8611C114.604 11.8611 112.816 12.5767 111.37 14C109.932 15.4311 109.209 17.36 109.209 19.7944C109.209 21.3111 109.504 22.6411 110.095 23.7767L116.011 24.3833H116.019Z" fill="white"/>
<path d="M139.751 12.2189H143.171C143.474 12.2189 143.622 12.3744 143.622 12.67V43.33C143.622 43.6256 143.474 43.7811 143.171 43.7811H139.751C139.448 43.7811 139.3 43.6256 139.3 43.33V30.03C139.3 29.9056 139.238 29.8511 139.121 29.8511H132.304C132.187 29.8511 132.125 29.9056 132.125 30.03V43.33C132.125 43.6256 131.977 43.7811 131.674 43.7811H128.254C127.951 43.7811 127.803 43.6256 127.803 43.33V12.67C127.803 12.3744 127.951 12.2189 128.254 12.2189H131.674C131.977 12.2189 132.125 12.3744 132.125 12.67V25.9233C132.125 26.0478 132.187 26.11 132.304 26.11H139.121C139.238 26.11 139.3 26.0478 139.3 25.9233V12.67C139.3 12.3744 139.448 12.2189 139.751 12.2189Z" fill="white"/>
<path fill-rule="evenodd" clip-rule="evenodd" d="M152.414 12.2189H156.417C156.72 12.2189 156.884 12.3589 156.915 12.6311L163.677 43.2833V43.3689C163.677 43.6411 163.545 43.7811 163.273 43.7811H159.76C159.488 43.7811 159.324 43.6411 159.262 43.3689L158.275 38.1889C158.275 38.1267 158.252 38.08 158.205 38.0567C158.158 38.0256 158.112 38.01 158.05 38.01H150.696C150.634 38.01 150.587 38.0256 150.54 38.0567C150.494 38.08 150.47 38.1267 150.47 38.1889L149.522 43.3689C149.499 43.6411 149.328 43.7811 149.032 43.7811H145.604C145.457 43.7811 145.34 43.7344 145.27 43.6411C145.192 43.5556 145.169 43.4311 145.2 43.2833L151.924 12.6311C151.978 12.3589 152.149 12.2189 152.414 12.2189ZM151.372 34.58H157.365C157.459 34.58 157.498 34.5256 157.498 34.4011L154.435 18.3944C154.404 18.34 154.373 18.3089 154.349 18.3089C154.318 18.3089 154.287 18.34 154.256 18.3944L151.24 34.4011C151.24 34.5256 151.287 34.58 151.372 34.58Z" fill="white"/>
<path d="M118.319 31.4922L123.644 30.8622H123.652C123.979 31.2978 124.258 31.7489 124.492 32.2156C124.981 33.2189 125.23 34.4167 125.23 35.8011C125.23 38.3211 124.499 40.3433 123.022 41.86C121.545 43.3767 119.625 44.1389 117.247 44.1389C114.868 44.1389 112.956 43.3922 111.502 41.9067C110.041 40.4211 109.31 38.4767 109.31 36.0656V34.8989C109.31 34.5956 109.466 34.4478 109.761 34.4478H113.096C113.399 34.4478 113.547 34.5956 113.547 34.8989V35.8478C113.547 37.2244 113.896 38.3289 114.588 39.1611C115.272 39.9856 116.151 40.3978 117.239 40.3978C118.327 40.3978 119.221 40.0011 119.921 39.2C120.628 38.4067 120.986 37.3644 120.986 36.0656C120.986 35.1944 120.791 34.4322 120.418 33.7711C120.045 33.11 119.548 32.5189 118.934 31.99C118.763 31.8422 118.553 31.6711 118.319 31.4922Z" fill="white"/>
<path d="M188.405 15.96H198.549C198.845 15.96 199 15.8122 199 15.5167V12.67C199 12.3744 198.845 12.2189 198.549 12.2189H184.339C184.036 12.2189 183.888 12.3744 183.888 12.67V43.33C183.888 43.6256 184.036 43.7811 184.339 43.7811H198.549C198.845 43.7811 199 43.6256 199 43.33V40.4911C199 40.1878 198.845 40.04 198.549 40.04H188.405C188.28 40.04 188.226 39.9778 188.226 39.8533V30.03C188.226 29.9056 188.28 29.8511 188.405 29.8511H194.631C194.927 29.8511 195.082 29.6956 195.082 29.4V26.5611C195.082 26.2578 194.927 26.11 194.631 26.11H188.405C188.28 26.11 188.226 26.0478 188.226 25.9233V16.1467C188.226 16.0222 188.28 15.96 188.405 15.96Z" fill="white"/>
<path fill-rule="evenodd" clip-rule="evenodd" d="M177.172 29.1744C177.087 29.26 177.056 29.3533 177.087 29.4389H177.071L181.673 43.2833L181.72 43.4622C181.72 43.6722 181.587 43.7811 181.315 43.7811H177.802C177.53 43.7811 177.351 43.6567 177.258 43.4156L173.114 29.9833C173.083 29.89 173.021 29.8511 172.936 29.8511H169.78C169.655 29.8511 169.601 29.9056 169.601 30.03V43.33C169.601 43.6256 169.445 43.7811 169.15 43.7811H165.722C165.427 43.7811 165.271 43.6256 165.271 43.33V12.67C165.271 12.3744 165.427 12.2189 165.722 12.2189H173.799C175.33 12.2189 176.682 12.6 177.848 13.3467C179.022 14.1011 179.932 15.1589 180.577 16.5278C181.222 17.8967 181.549 19.4522 181.549 21.1944C181.549 23.0844 181.152 24.7333 180.375 26.1256C179.59 27.5256 178.525 28.5444 177.172 29.1744ZM169.78 26.4211H173.114C174.343 26.4211 175.338 25.9467 176.084 25.0056C176.838 24.0567 177.211 22.8667 177.211 21.2411C177.211 19.6156 176.838 18.3322 176.084 17.3833C175.338 16.4344 174.343 15.96 173.114 15.96H169.78C169.655 15.96 169.601 16.0222 169.601 16.1467V26.2422C169.601 26.3589 169.655 26.4211 169.78 26.4211Z" fill="white"/>
<path d="M15.267 32.2156C15.7568 33.2267 16.0055 34.4167 16.0055 35.8011C16.0055 38.3289 15.2748 40.3511 13.7979 41.8678C12.3287 43.3844 10.4086 44.1389 8.02219 44.1389C5.63574 44.1389 3.73902 43.4 2.26984 41.9144C0.816211 40.4211 0.0855078 38.4767 0.0855078 36.0733V34.8989C0.0855078 34.6033 0.240977 34.4478 0.536367 34.4478H3.87117C4.17434 34.4478 4.32203 34.6033 4.32203 34.8989V35.8478C4.32203 37.2322 4.67184 38.3367 5.3559 39.1611C6.04773 39.9856 6.93391 40.3978 8.01441 40.3978C9.09492 40.3978 9.98887 40.0011 10.6962 39.2078C11.4036 38.4067 11.7534 37.3644 11.7534 36.0733C11.7534 35.2022 11.5669 34.4322 11.1937 33.7711C10.8206 33.11 10.3231 32.5189 9.70902 31.99C9.09492 31.4689 8.09215 30.6911 6.70848 29.6722C5.17711 28.5289 3.98 27.5489 3.10937 26.74C2.23875 25.9311 1.50027 24.9511 0.901719 23.8078C0.295391 22.6722 0 21.3344 0 19.8022C0 17.3678 0.715156 15.4311 2.16102 14.0078C3.5991 12.5767 5.48027 11.8611 7.79676 11.8611C10.1132 11.8611 12.1343 12.6311 13.5957 14.1633C15.0571 15.6956 15.7801 17.71 15.7801 20.2067V21.3344C15.7801 21.63 15.6324 21.7856 15.3292 21.7856H12.0022C11.699 21.7856 11.5513 21.63 11.5513 21.3344V20.1133C11.5513 18.76 11.2015 17.6711 10.5097 16.8467C9.81785 16.0222 8.91613 15.61 7.80453 15.61C6.75512 15.61 5.90004 15.9756 5.2393 16.7144C4.57855 17.4456 4.25207 18.48 4.25207 19.8022C4.25207 21 4.57855 22.0189 5.2393 22.8433C5.90004 23.6678 7.17488 24.7722 9.0716 26.1567C10.875 27.51 12.2276 28.6067 13.1449 29.4467C14.0621 30.2867 14.7695 31.2122 15.267 32.2156ZM76.4751 40.04H66.3307C66.2064 40.04 66.1519 39.9778 66.1519 39.8611V31.2122L61.8221 30.7689V43.33C61.8221 43.6333 61.9698 43.7811 62.273 43.7811H76.4828C76.7782 43.7811 76.9337 43.6333 76.9337 43.33V40.4911C76.9337 40.1878 76.7782 40.04 76.4828 40.04H76.4751ZM76.4751 12.2267H62.2652C61.9621 12.2267 61.8144 12.3744 61.8144 12.6778V25.2233L66.1442 24.71V16.1467C66.1442 16.03 66.1986 15.9678 66.323 15.9678H76.4673C76.7627 15.9678 76.9182 15.82 76.9182 15.5167V12.6778C76.9182 12.3744 76.7627 12.2267 76.4673 12.2267H76.4751ZM50.7295 11.8611C48.2964 11.8611 46.3375 12.6 44.845 14.0778C43.3602 15.5478 42.614 17.5156 42.614 19.9811V35.98C42.614 38.4456 43.3602 40.4211 44.845 41.9144C46.3297 43.4 48.2886 44.1389 50.7295 44.1389C53.1703 44.1389 55.1681 43.4 56.6606 41.9144C58.1531 40.4211 58.8916 38.4456 58.8916 35.98V35.3033C58.8916 35.0078 58.7439 34.8522 58.4407 34.8522L55.0204 34.6733C54.7172 34.6733 54.5695 34.8289 54.5695 35.1244V36.2989C54.5695 37.5278 54.2197 38.5233 53.5123 39.27C52.805 40.0244 51.8799 40.3978 50.7372 40.3978C49.5945 40.3978 48.685 40.0244 47.9932 39.27C47.3014 38.5233 46.9516 37.5278 46.9516 36.2989V19.7089C46.9516 18.48 47.3014 17.4844 47.9932 16.73C48.685 15.9833 49.5945 15.61 50.7372 15.61C51.8799 15.61 52.805 15.9833 53.5123 16.73C54.2197 17.4844 54.5695 18.48 54.5695 19.7089V20.8833C54.5695 21.1789 54.7172 21.3344 55.0204 21.3344L58.4407 21.1478C58.7439 21.1478 58.8916 21 58.8916 20.7044V19.9811C58.8916 17.5156 58.1531 15.5478 56.6606 14.0778C55.1759 12.6 53.2014 11.8611 50.7295 11.8611ZM38.9993 12.2267H35.579C35.2759 12.2267 35.1282 12.3744 35.1282 12.6778V43.33C35.1282 43.6333 35.2759 43.7811 35.579 43.7811H38.9993C39.3025 43.7811 39.4502 43.6333 39.4502 43.33V12.6778C39.4502 12.3744 39.3025 12.2267 38.9993 12.2267ZM33.1926 40.04H23.0871C22.9705 40.04 22.9083 39.9778 22.9083 39.8611V12.6778C22.9083 12.3744 22.7606 12.2267 22.4575 12.2267H19.0371C18.734 12.2267 18.5863 12.3744 18.5863 12.6778V43.33C18.5863 43.6333 18.734 43.7811 19.0371 43.7811H33.2003C33.4957 43.7811 33.6512 43.6333 33.6512 43.33V40.4911C33.6512 40.1878 33.4957 40.04 33.2003 40.04H33.1926Z" fill="white"/>
<path d="M90.9414 56L90.9959 19.1878L87.8943 25.83L85.9043 30.1078L65.0637 27.9689L83.1991 25.83L90.5994 9.97111L90.9959 9.11556L93.2502 4.29333L95.2013 0L95.1469 36.8122L98.2485 30.17L100.238 25.8922L121.079 28.0311L102.944 30.17L95.5433 46.0289L95.1469 46.8844L92.8926 51.7067L90.9414 56Z" fill="#FF0040"/>
</g>
<defs>
<clipPath id="clip0_281_10680">
<rect width="199" height="56" fill="white"/>
</clipPath>
</defs>
</svg>
